<?xml version="1.0" encoding="UTF-8"?>
<svg viewBox="0 0 3000 3000" xmlns="http://www.w3.org/2000/svg">
<g>
<title>background</title>
<rect x="-1" y="-1" width="582" height="402" fill="none"/>
</g>
<g>
<title>Layer 1</title>
<g fill="#039BDE" stroke="null">
<path d="m1357.1 1199.1c-160.28-3.2365-304.26-66.295-417.29-195.79-66.869-76.607-108.49-165.94-127.24-265.87-8.4736-45.197-11.452-90.917-7.8785-136.65 13.901-177.91 93.272-319.79 237.7-424.52 69.587-50.458 147.79-81.276 232.53-95.433 41.367-6.9104 83.089-8.9684 124.86-6.2399 120.7 7.8844 228.42 49.843 321.84 126.67 97.436 80.133 161.43 181.78 190.94 304.69 9.3401 38.918 13.716 78.463 14.169 118.52 0.74339 65.669-7.6621 129.94-28.355 192.38-26.48 79.926-70.361 149.23-128.63 209.68-54.965 57.01-118.16 102.1-191.69 132.17-41.789 17.09-85.102 28.402-129.82 34.621-26.663 3.711-53.452 5.0818-91.15 5.769l0.009561-0.003585zm-0.75295-63.47h-0.031074c0-11.699 0.24023-23.405-0.080075-35.094-0.23425-8.5262-2.7775-11.183-10.972-13.247-1.5441-0.38842-3.0943-0.83063-4.6683-1.0027-10.56-1.1593-21.129-2.2337-31.692-3.3703-20.352-2.1895-40.562-5.1559-60.409-10.355-66.498-17.417-125.24-49.455-177.44-93.876-3.644-3.1002-7.1458-6.3953-10.981-9.2385-5.4427-4.036-9.0628-3.7851-14.38 0.49479-1.2382 0.99556-2.3509 2.1537-3.4779 3.2807-14.099 14.104-28.206 28.202-42.267 42.344-2.0557 2.0676-4.1054 4.2046-5.775 6.5781-3.0321 4.3097-2.9054 7.5199 0.5677 11.538 2.4226 2.8038 5.2037 5.3208 7.9788 7.7936 65.257 58.139 140.05 98.648 224.57 121 38.413 10.159 77.473 16.168 117.29 16.644 9.713 0.11593 11.684-1.8202 11.763-11.576 0.082466-10.639 0.016732-21.276 0.016732-31.912l-0.003585 0.001195zm-488.75-507.92v-0.059758c10.636 0 21.271 0.013147 31.908-0.003585 10.869-0.017927 13.015-1.8812 14.531-12.44 2.6795-18.666 5.5407-37.308 8.0326-55.999 6.504-48.781 22.122-94.447 45.851-137.51 16.504-29.955 36.557-57.334 58.469-83.459 2.3879-2.8469 4.5691-5.8742 6.7431-8.8907 3.0644-4.2524 2.7166-8.4187-0.58443-12.402-1.0171-1.2274-1.9887-2.5038-3.1098-3.6309-14.616-14.715-29.134-29.529-43.937-44.053-8.1689-8.0159-13.895-7.7613-21.704 0.67526-5.5921 6.0427-10.681 12.55-16.065 18.789-57.035 66.081-91.705 143.17-111.69 227.41-6.2088 26.179-8.1151 53.01-11.108 79.665-0.80075 7.1303-1.7091 14.257-2.1871 21.411-0.47089 7.043 2.0401 9.7441 8.9589 10.435 1.3171 0.13147 2.6568 0.057367 3.9858 0.057367 10.634 0.003585 21.27 0.00239 31.906 0.00239v0.003585zm995.71 18.899v0.040635c-5.5838 0-11.169 0.050196-16.751-0.014342-5.8491-0.068124-11.695-0.32747-17.545-0.36094-8.9637-0.051392-11.868 2.5923-12.842 11.536-1.0649 9.7716-2.0342 19.555-3.1385 29.323-3.0787 27.22-7.557 54.17-15.219 80.532-14.735 50.688-39.24 96.268-71.594 137.8-9.3114 11.953-18.514 23.997-27.509 36.19-4.7603 6.4526-4.6922 9.0413 0.7637 14.671 15.912 16.419 31.948 32.726 48.22 48.789 6.112 6.0331 11.266 5.5921 17.225-0.69558 4.5691-4.8201 8.8226-9.9425 13.137-14.998 81.262-95.184 123.95-205.61 130.45-330.32 0.52467-10.068-1.672-12.376-11.697-12.473-11.165-0.10876-22.334-0.025098-33.503-0.025098l0.00239 0.001195zm-507.02-507.04h0.20318c0-11.169 0.015537-22.336-0.003585-33.505-0.017927-10.496-3.0213-13.316-13.412-12.651-1.0613 0.068124-2.1202 0.17688-3.1779 0.28803-14.271 1.4939-28.549 2.9353-42.812 4.5021-21.397 2.3509-42.749 5.0137-63.671 10.305-88.336 22.339-166.01 64.575-233.76 125.31-1.5812 1.4186-3.1684 2.8648-4.532 4.4842-3.6261 4.3061-3.7516 7.5665-0.50436 12.253 1.0529 1.5202 2.3162 2.9174 3.6118 4.2464 13.925 14.28 27.857 28.553 41.84 42.776 2.0437 2.0784 4.2942 3.9739 6.5757 5.7953 3.7827 3.0178 7.8832 3.1946 11.788 0.40874 3.6703-2.6186 7.1721-5.4965 10.584-8.4485 50.62-43.814 108.04-75.053 172.4-93.578 33.61-9.6748 67.905-15.042 102.78-17.04 10.636-0.60953 12.072-2.3317 12.089-13.229 0.015537-10.64 0.003585-21.277 0.003585-31.915l-0.007171-0.00239zm506.27 488.22v-0.040635c11.702 0 23.406 0.10876 35.106-0.035855 8.5549-0.10517 11.488-3.203 11.092-11.784-0.29401-6.3666-1.0888-12.708-1.6493-19.063-1.7748-20.118-3.0417-40.313-6.8841-60.176-16.06-83.04-49.374-158.5-99.909-226.34-10.811-14.512-22.149-28.605-34.499-41.84-6.6761-7.1554-11.292-7.6227-17.648-1.3649-16.108 15.862-31.939 32.005-47.871 48.044-0.56053 0.56411-1.0649 1.1928-1.5298 1.8381-3.3895 4.6946-3.6452 8.3601-0.37647 13.222 2.2158 3.2986 4.8547 6.3224 7.4123 9.3796 17.233 20.604 34.682 41.034 50.906 62.455 12.011 15.858 20.797 33.424 25.426 52.782 2.664 11.134 5.6626 22.12 9.4357 32.91 6.5817 18.828 12.285 37.841 15.462 57.636 3.7086 23.105 6.3487 46.324 9.0879 69.542 1.1784 9.9891 4.5045 12.853 14.521 12.837 10.639-0.017927 21.277-0.004781 31.917-0.004781v0.001195zm-486.86 505.81h-0.03705c0 11.434-0.10756 22.869 0.03705 34.301 0.098003 7.6753 3.5233 11.126 11.27 11.108 9.566-0.022708 19.203 0.17808 28.682-0.86768 21.651-2.3855 43.17-5.7833 64.476-10.429 95.357-20.79 179.18-63.904 251.23-129.78 1.9565-1.7891 3.8125-3.7086 5.5575-5.7057 2.8469-3.2604 2.8218-6.7239 0.2725-10.164-1.1067-1.4927-2.2015-3.0285-3.5138-4.33-17.558-17.411-35.194-34.747-52.699-52.211-2.2815-2.2768-3.7516-1.8919-5.9005 0.032269-7.3251 6.5566-14.518 13.261-22.653 18.875-28.447 19.629-56.63 39.621-84.019 60.722-12.651 9.7465-26.134 18.264-40.561 25.226-7.9526 3.8376-16.172 5.4296-24.722 2.6509-7.098-2.3078-14.073-1.862-21.235-0.49838-22.954 4.3707-45.712 9.7967-68.909 12.861-9.2158 1.2179-18.481 2.1071-27.657 3.5663-7.4243 1.1808-9.5182 3.8054-9.5923 11.138-0.10995 11.169-0.027489 22.337-0.027489 33.505l-0.00239 0.00239zm4.4782-969.59c-0.92266 0.79358-1.6194 1.2155-2.082 1.8178-6.5494 8.5143-2.9795 17.474 7.5127 18.822 3.9524 0.50794 7.9251 0.84019 11.885 1.2944 15.832 1.8178 31.737 3.1672 47.479 5.5814 34.601 5.3053 67.572 16.262 99.672 30.012 7.5629 3.2389 14.91 6.9881 22.813 9.4298 8.6792 2.6807 17.331 3.0954 25.666-0.78522 5.8013-2.6999 11.246-2.2517 16.927-0.017927 7.4291 2.921 14.688 6.1813 21.66 10.075 17.932 10.014 31.917 23.696 40.019 42.895 0.92505 2.1895 2.0413 4.3539 3.4074 6.2913 5.0579 7.1817 11.168 8.3481 18.598 3.736 2.9664-1.8417 5.3878-4.3073 7.8223-6.7658 10.288-10.389 20.587-20.772 30.886-31.15 1.684-1.6971 3.5628-3.2317 5.0615-5.0758 3.0488-3.748 2.9939-6.2052-0.13027-9.9246-1.3613-1.6194-2.9903-3.0202-4.5476-4.4687-26.366-24.532-54.92-46.187-85.812-64.691-49.103-29.414-101.12-51.756-157.17-64.208-34.087-7.5725-68.879-9.6915-103.46-13.361-8.0721-0.85573-10.911 2.2003-11.011 10.724-0.18047 15.42-0.098003 30.842-0.26771 46.262-0.057367 5.2109 0.39082 10.1 5.0794 13.508h0.00239zm-450.94 602.42c1.3864-2.8648 0.52587-5.7738 0.11952-8.5967-2.3138-16.038-4.7077-32.064-7.1219-48.087-2.7309-18.125-5.4475-36.25-8.3015-54.354-1.1473-7.2785-2.7357-8.7294-9.8098-8.7437-23.934-0.050196-47.869-0.023903-71.804 0.14939-7.6705 0.054977-9.8672 2.1429-9.3939 9.5218 1.476 23.064 1.4139 46.295 5.6351 69.098 12.342 66.674 34.22 129.87 69.6 188.05 19.255 31.664 40.953 61.518 65.754 89.066 8.1868 9.0939 12.44 9.0879 21.092 0.47926 14.515-14.443 28.937-28.981 43.378-43.499 1.4963-1.5035 3.0871-2.9915 4.2344-4.7483 2.1322-3.258 3.313-6.9175 0.73382-10.407-7.4207-10.038-14.062-20.848-23.858-28.789-8.7151-7.0646-16.56-14.956-24.458-22.844-5.5252-5.5192-11.778-10.06-19.396-12.124-3.0572-0.82824-5.0985-2.6461-7.2235-4.6444-12.593-11.839-25.207-23.658-37.803-35.495-2.1429-2.015-4.3205-4.6348-7.3657-4.3002-9.0963 1.0003-16.761-1.519-23.28-7.8952-1.1689-1.1438-2.8875-1.4772-4.4782-0.8641-2.0186 0.77924-1.3326 2.652-1.2465 4.1113 0.14103 2.3831 0.69319 4.746 0.78283 7.1267 0.11474 3.0405-2.1369 4.8667-5.0973 4.3026-1.9302-0.36811-3.5209-1.4306-4.3384-3.2066-3.5412-7.6956-8.7724-14.7-10.192-23.267-1.6087-9.7058-2.7465-19.469-2.2756-29.363 0.63343-13.291 8.9577-22.927 22.227-25.14 12.252-2.0437 24.329-1.0924 36.202 2.6389 2.4776 0.78402 4.8392 2.2624 7.6836 1.8334v-0.004781zm47.303-138.88v-0.13744c11.433 0 22.881 0.36333 34.294-0.11593 9.0879-0.38125 12.2-3.5604 13.515-12.636 2.2481-15.515 5.1296-30.913 7.9251-46.335 9.9401-54.817 32.889-103.54 68.082-146.59 3.5329-4.3205 7.5068-8.286 10.948-12.673 3.9093-4.9826 3.9093-9.125-0.46611-13.559-17.185-17.417-34.493-34.712-51.921-51.886-4.7878-4.7197-8.6218-4.4806-12.829 0.73143-10.521 13.036-21.913 25.344-31.913 38.816-34.926 47.053-57.222 99.835-71.082 156.43-6.0296 24.621-9.1369 49.645-9.2397 74.997-0.045416 11.032 2.0186 12.875 13.167 12.938 9.8385 0.056172 19.679 0.013147 29.52 0.013147zm379.84-377.92h0.052587c0-11.696 0.090832-23.393-0.029879-35.087-0.093222-9.125-3.454-11.855-12.451-10.621-17.889 2.4525-35.764 5.0161-53.678 7.2665-37.476 4.7077-73.219 15.037-107.16 31.765-37.364 18.415-72.662 39.868-103.43 68.227-1.9517 1.7987-3.9512 3.5855-5.6543 5.6089-4.2237 5.0125-4.3241 8.4258-0.43145 13.558 1.4378 1.8943 3.166 3.5819 4.8607 5.2647 8.8645 8.8035 17.785 17.552 26.639 26.367 6.5925 6.5638 12.998 13.32 19.704 19.765 4.789 4.6037 7.2916 4.6193 12.565 0.74339 2.1357-1.5692 4.0671-3.4181 6.1013-5.1272 45.423-38.148 96.705-64.187 155.26-75.278 14.887-2.8194 29.859-4.9025 44.929-6.4263 10.734-1.0852 12.707-3.4815 12.724-14.126 0.016732-10.634 0.003585-21.268 0.003585-31.9h-0.003585zm283.16 645.86c2.7477-1.7103 3.7098-4.648 5.6782-6.7622 5.8383-6.2746 9.8218-5.9925 14.429 1.2513 3.0333 4.7675 4.2978 10.266 6.2602 15.474 2.3413 6.2076 4.2679 12.598 6.9976 18.626 4.0181 8.8704 7.5103 9.3174 13.842 2.1704 3.5221-3.9775 6.7251-8.2358 10.155-12.297 44.184-52.292 74.335-111.65 89.835-178.38 5.9017-25.417 10.082-51.077 10.309-77.243 0.07649-8.9517-2.4596-11.66-11.228-11.728-22.33-0.17449-44.662-0.18525-66.993-0.062148-8.8979 0.050196-11.681 2.7285-12.981 11.685-1.5238 10.511-2.8481 21.053-4.3683 31.565-8.4509 58.413-31.485 110.53-67.891 156.84-4.1065 5.224-8.4509 10.258-12.574 15.468-5.7224 7.2307-5.6351 9.4788 0.57009 16.516 5.4559 6.1885 11.527 11.727 17.958 16.877v-0.003585zm-473.33 19.187c-1.5501 5.1941-2.5146 9.0569-3.8615 12.782-1.8752 5.1822-5.6041 8.5107-11.206 8.8322-12.328 0.70753-24.044 4.0217-35.729 7.6717-11.484 3.5879-22.833 4.9181-33.727-2.2469-2.7261-1.7927-6.1443-2.1345-8.8609 0.51631-2.8624 2.7919-2.5791 6.1873-1.3601 9.6413 1.3075 3.705 4.3181 5.9758 7.1016 8.4294 53.41 47.074 114.43 79.632 183.75 96.366 26.903 6.4945 53.993 11.728 81.818 11.794 10.025 0.023903 12.24-2.2003 12.263-12.088 0.050196-20.469 0.077685-40.939 0.032269-61.408-0.035855-16.151-1.9875-18.261-18.166-19.21-31.814-1.8668-62.486-8.7103-92.23-20.165-23.656-9.1095-45.869-20.97-67.582-33.892-3.8161-2.272-7.704-4.4233-12.247-7.0239zm537.91-347.11c0 3.7193 0.086051 7.441-0.016732 11.158-0.35735 13.022-0.78283 26.048 1.8142 38.926 1.5561 7.7159 4.0157 9.9951 11.869 10.036 22.857 0.12071 45.718 0.16135 68.576-0.043026 9.1489-0.08127 12.451-4.1878 11.493-13.179-1.2394-11.619-2.5923-23.225-3.7874-34.849-3.6404-35.385-12.612-69.411-26.027-102.3-1.0972-2.6891-2.2768-5.4308-3.9297-7.7888-2.8624-4.0826-5.781-4.7113-10.325-2.7883-1.2191 0.51631-2.3449 1.2489-3.5568 1.7868-6.3642 2.8253-10.368 2.1537-15.117-2.719-1.6637-1.7043-3.1923-3.5843-4.5284-5.5551-12.155-17.938-27.431-32.318-46.917-42.151-6.6618-3.362-13.218-7.5689-17.302-13.816-4.8858-7.4721-11.801-11.047-19.687-13.744-2.7608-0.94417-5.4379-2.1333-8.1569-3.1982-7.0789-2.7704-10.507-1.7342-14.711 4.434-4.7352 6.9498-4.0241 14.503 1.978 20.431 4.2034 4.1508 7.4219 9.0162 10.344 14.096 3.9906 6.9367 8.6386 13.35 14.118 19.223 6.1789 6.6223 11.897 13.748 15.734 21.967 7.6287 16.338 16.221 32.286 21.298 49.723 0.90234 3.0966 2.2481 5.9782 4.3743 8.4222 1.8692 2.1465 3.4898 1.1294 4.1161-0.937 0.85812-2.8325 0.30237-5.7499-0.47089-8.6326-2.8851-10.77-5.6997-21.558-8.4199-32.368-0.50914-2.0174-1.7043-4.0074-1.0302-6.1969 0.44579-1.4473 0.52109-3.4456 2.3162-3.7982 1.6541-0.32389 2.9735 0.93102 3.944 2.2397 0.45774 0.61909 0.76609 1.4067 0.94656 2.1644 4.5547 19.072 11.139 37.682 11.943 57.588 0.43384 10.666-0.50436 21.249-0.88083 31.872zm-347.79-207.29h0.062148c0-11.16 0.12788-22.324-0.03705-33.482-0.15776-10.715-2.3162-12.666-12.805-12.214-10.362 0.44579-20.63 1.7138-30.852 3.4743-58.402 10.054-110.28 34.101-155.51 72.404-1.8226 1.5429-3.6715 3.0978-5.2515 4.875-4.0121 4.5129-4.0731 7.9442-0.36691 12.804 0.9621 1.2609 2.1142 2.3843 3.2365 3.5149 14.6 14.715 29.21 29.42 43.817 44.126 0.18764 0.18883 0.37289 0.37886 0.56411 0.56292 8.035 7.7685 12.42 7.9741 21.482 0.98481 1.4724-1.1366 2.8994-2.3317 4.3527-3.4922 21.862-17.454 45.838-30.571 73.342-36.984 15.764-3.6763 31.499-7.4709 47.329-10.868 8.7019-1.8668 10.577-4.195 10.63-13.018 0.062148-10.895 0.013147-21.791 0.013147-32.687h-0.00239zm18.897-4.0492c-0.9621 11.273-0.59877 20.57-0.30118 29.87 0.58682 18.367 1.3935 19.173 19.865 21.541 25.232 3.2365 49.313 10.409 72.179 21.584 16.069 7.8534 30.882 17.646 44.797 28.874 7.0873 5.7188 11.917 5.8897 17.689 0.29281 16.223-15.727 32.316-31.59 47.783-48.075 2.6485-2.8218 3.1564-5.8742 3.0512-9.4656-0.12669-4.3193-3.1325-6.5471-5.9064-8.9888-38.608-33.988-81.864-58.814-133.25-67.679-18.313-3.16-36.586-6.5578-54.903-9.6939-7.2916-1.2477-10.546 1.4342-11.028 8.6362-0.14103 2.1166 0.016732 4.2512 0.017927 6.3773 0.003585 9.5684 0.001195 19.137 0.001195 26.726h0.00239zm138.45-30.353c-1.0231-2.1931-3.9165-4.4328 0.55814-5.3866 2.0676-0.44101 4.281-1.0637 6.2925-0.74697 6.6845 1.0541 12.449-0.75653 18.188-4.1173 5.3842-3.154 11.22-2.9879 16.73 0.19242 4.0169 2.3174 6.6845 5.9901 9.3365 9.676 2.0114 2.7955 3.9189 5.7475 6.357 8.1354 3.1719 3.105 7.9753 3.2735 11.886 1.3983 3.9703-1.9027 3.7229-5.1129 3.5592-8.7485-1.1234-24.889-11.421-46.313-25.968-65.672-7.2486-9.6473-15.616-18.773-27.379-23.781-12.228-5.2073-24.546-10.125-37.229-14.093-35.455-11.095-72.131-15.304-108.88-18.947-10.136-1.0051-13.016 2.2756-11.585 12.626 1.2107 8.7473 1.6983 17.374 0.49838 26.175-1.9087 14.006-1.2621 28.117-0.82824 42.19 0.18405 5.9638 1.9935 8.0243 7.5844 9.7202 2.0246 0.61431 4.1257 1.0422 6.2208 1.3481 39.482 5.7642 78.586 13.019 115.69 28.497 2.5708 1.0709 5.2563 2.7668 8.9684 1.5346zm-468.48 283.72c0 4.5213 0.077685 9.0437-0.025098 13.564-0.07649 3.3679 1.3159 4.7579 4.7555 4.6587 6.1132-0.17569 12.237 0.050196 18.353-0.083661 13.851-0.30476 20.913-5.8371 24.707-19.274 1.5155-5.3662 2.7381-10.819 4.3611-16.15 4.7125-15.476 13.863-26.748 30.029-31.317 3.6464-1.0302 6.945-2.7823 8.7079-6.4431 2.958-6.1479 7.6729-10.823 12.78-15.123 7.5832-6.3857 14.172-13.676 19.78-21.809 7.8486-11.383 15.348-23.007 23.282-34.328 2.4381-3.4791 1.47-5.4654-1.1533-8.0792-17.148-17.087-34.099-34.37-51.267-51.436-6.8877-6.8458-10.822-6.5088-17.195 0.84856-27.655 31.935-48.708 67.71-61.964 107.88-8.2609 25.036-15.018 50.445-15.151 77.097zm314.48 127.44c11.934 0.3454 16.971-2.7238 21.653-13.11 1.1975-2.6568 2.3616-5.3889 3.0417-8.2071 2.872-11.906 9.6879-18.575 22.553-17.699 1.3003 0.088441 2.6365-0.25696 3.9488-0.44818 6.6702-0.97046 11.138-4.734 13.532-10.938 1.2418-3.2162 2.2923-6.5028 2.5409-10.005 0.20915-2.9341 0.49718-5.5933-2.1405-7.986-2.7453-2.4907-3.8532-6.663-2.1094-9.529 2.7046-4.4448 1.2597-7.9537-0.4183-11.799-5.7941-13.287-9.0796-26.922-9.1142-41.663-0.028684-12.684-5.2635-23.754-16.381-31.217-2.1979-1.476-4.25-3.2078-6.2112-4.9934-8.7437-7.9633-19.746-11.237-30.639-14.604-2.6783-0.82705-5.7929-0.31552-8.7055-0.29401-2.2983 0.016732-4.1316 0.93222-4.9372 3.2771-2.9389 8.5537-9.9007 12.785-17.484 16.417-5.7606 2.7596-11.352 5.8407-16.199 10.074-6.6988 5.8515-7.7195 9.5146-3.2723 17.366 3.1361 5.5383 4.691 10.453 0.29281 15.874-0.63941 0.78761-0.95851 1.9015-1.2226 2.9174-1.2477 4.7914 0.22827 7.7362 5.1798 8.8358 10.247 2.2744 18.451 7.9824 25.999 14.823 16.613 15.057 18.506 25.934 8.2872 45.876-5.3364 10.411-13.281 16.939-25.304 18.181-5.2587 0.5438-10.453 1.8668-15.619 3.0787-2.462 0.57606-3.9165 2.2708-1.7055 4.5822 4.6396 4.8535 9.4608 9.5242 17.117 8.2525 3.4002-0.56531 6.8279-0.96449 10.227-1.5298 6.6188-1.1019 7.0024-1.1928 9.2959 5.2384 2.0784 5.8312 5.9423 8.5143 11.876 8.8011 2.1238 0.10398 4.2428 0.30476 5.9196 0.42786zm-13 221.21c0.53423-0.057367 3.2018 1.2609 3.5126-2.1704 0.27608-3.0405-2.1537-3.3118-4.2022-3.656-4.9766-0.83541-9.958-1.7461-14.975-2.2098-17.216-1.5907-29.923-10.1-38.655-24.81-1.8967-3.1946-3.5436-6.5387-5.2898-9.823-5.7296-10.78-4.9945-21.439 0.53304-32.052 2.3437-4.5009 5.1989-8.6505 8.2011-12.72 7.735-10.484 7.1434-12.432-4.8559-16.608-8.7904-3.0584-17.417-6.5136-25.776-10.631-16.527-8.139-31.832-18.184-46.446-29.355-7.8366-5.9913-11.643-5.763-18.668 1.243-15.443 15.401-30.827 30.861-46.108 46.423-7.1578 7.2892-6.7658 12.389 1.5143 18.267 15.394 10.927 30.91 21.681 46.469 32.372 43.18 29.672 92.103 41.446 144.75 45.73h0.001195zm-205.94-264.32c-0.45416 0.095612-0.99198 0.066929-1.3517 0.30476-2.8277 1.8752-5.9351 3.2699-8.7139 0.52826-2.6509-2.615-2.9939-6.0475-1.4736-9.615 1.0398-2.4393 1.7425-5.0184 2.7273-7.4829 0.79478-1.9887 1.7629-3.9727 1.4019-6.1371-0.84736-5.0842-0.046611-10.019 0.6896-15.042 0.9131-6.2303-1.3063-9.0342-7.686-9.4274-6.8841-0.42428-13.812-0.25576-20.719-0.15178-5.6244 0.084856-9.7309 2.8146-11.532 8.182-1.482 4.4161-4.6922 6.9104-8.4234 9.1059-2.5158 1.4808-5.0364 2.9759-7.4243 4.6503-2.7835 1.9517-4.4842 4.6766-3.9834 8.1725 1.4784 10.332 3.4863 20.548 10.907 28.565 3.5305 3.8137 5.8371 8.2095 7.4996 13.012 4.6061 13.3 9.0354 26.663 13.765 39.918 2.4668 6.9128 3.4074 13.835 2.4393 21.139-0.87844 6.6367-0.54021 13.296 1.5633 19.724 3.9679 12.124 7.1494 24.455 10.203 36.832 1.0756 4.3611 2.5588 8.6505 5.0854 12.498 2.0808 3.1672 4.7591 3.9954 8.2286 2.6891 3.558-1.3398 6.4574-3.6106 9.125-6.2638 9.6138-9.5636 19.263-19.09 28.892-28.641 5.285-5.2431 10.661-10.401 15.796-15.788 5.0555-5.3053 5.4619-8.7163 1.8812-15.027-2.0939-3.6906-4.544-7.1865-6.9367-10.7-16.372-24.042-30.461-49.257-39.733-76.964-0.4936-1.4724-0.64419-3.1803-2.2266-4.0803zm462.81 158.93c1.0828-0.83422 1.7676-1.2167 2.266-1.7676 50.027-55.136 74.323-121 80.912-194.22 0.62028-6.8889-1.8597-9.921-8.9577-10.294-7.1494-0.37408-14.338-0.011952-21.509 0.00239-9.2959 0.019122-18.603-0.25935-27.884 0.10278-7.4446 0.29162-8.8955 3.0668-5.3579 9.7608 3.7253 7.049 7.3538 14.105 10.228 21.569 3.3058 8.5872 8.2107 11.317 17.423 10.137 4.2093-0.53901 8.3876-1.3445 12.573-2.0604 1.5776-0.2701 3.1767-0.7147 4.3623 0.84378 1.4402 1.8919 0.37169 3.4731-0.68363 5.0567-2.505 3.7576-5.0005 7.5211-7.4852 11.292-4.5966 6.9713-11.01 11.429-19.028 13.546-3.5879 0.94656-7.251 1.6087-10.888 2.364-12.996 2.6999-25.858 5.4236-37.653 12.249-9.015 5.2156-13.826 12.838-16.744 22.237-1.4951 4.8153-1.0768 9.2099 2.0234 13.559 6.4168 9.0007 7.3693 19.152 5.0328 29.706-0.91549 4.1388-2.174 8.2035-3.3345 12.285-1.4414 5.0698-2.8648 10.137-3.1492 15.323 2.2708 1.2896 4.4567 0.62506 6.5399 0.84497 7.698 0.8127 12.064 3.9548 13.339 11.365 1.0482 6.0893 4.0121 10.848 7.9753 16.108v-0.004781zm-247.31-380.58h0.15418c0-11.96 0.18764-23.923-0.063343-35.877-0.18047-8.6218-2.9401-10.937-11.331-10.313-42.753 3.1779-80.188 19.399-113.18 46.373-7.012 5.732-7.0968 9.0736-0.71948 15.646 7.5892 7.8223 15.227 15.599 22.949 23.291 8.8501 8.8178 17.73 17.609 26.761 26.243 5.9507 5.6901 7.6526 5.7989 14.546 1.1234 5.677-3.8508 11.214-7.692 15.819-13.147 4.3778-5.1846 9.7477-11.044 18.316-6.2793 1.6517 0.91907 4.201 0.56172 6.2746 0.30357 3.4134-0.42548 6.7646-1.323 10.162-1.8955 8.739-1.4724 10.235-3.0919 10.296-11.974 0.0741-11.164 0.016732-22.329 0.016732-33.494zm277.02-14.447c-8.1928-11.093-15.884-21.929-24.038-32.403-6.0391-7.7577-10.484-7.8808-17.958-1.1557-4.348 3.9105-8.4402 8.1067-12.644 12.176-12.041 11.656-24.06 23.343-35.353 35.73-5.5933 6.1347-5.7965 8.88-1.0756 15.462 5.2658 7.3406 10.902 14.422 16.539 21.488 3.2042 4.0169 7.1136 6.761 12.483 7.8832 9.7094 2.0306 17.382 7.7135 23.665 15.304 4.7687 5.763 8.4975 12.203 12.257 18.636 1.5764 2.6999 2.4811 5.9029 5.3148 7.8928 4.7101-2.6437 8.4246-6.4574 12.5-9.8218 7.8629-6.4921 13.253-5.7654 19.396 2.5266 1.4198 1.9158 2.6078 4.0097 3.8257 6.0666 2.217 3.742 3.7743 7.4315 1.5286 11.936-1.8955 3.803-0.26054 7.8474 0.39799 11.745 0.44101 2.6102 2.1501 4.2882 4.6754 4.8726 2.4381 0.56292 4.0121-1.0482 5.3053-2.7919 1.2645-1.7055 2.4357-3.4934 3.491-5.3352 3.1624-5.5228 5.8323-11.299 9.8815-16.335 3.2353-4.0265 3.1385-9.0461 1.8417-13.76-1.7593-6.3941-3.8568-12.712-6.1311-18.944-4.5069-12.351-11.353-22.633-23.92-28.488-6.8004-3.1684-7.9896-8.0302-5.3543-15.371 0.71709-1.9971 1.6923-3.9344 2.1453-5.9877 1.2454-5.6495-0.15418-9.3497-4.5559-12.614-0.066929 1.1414-0.19242 2.1967-0.17927 3.2508 0.082466 6.3797 0.11474 12.763 0.3454 19.138 0.077685 2.1883 0.13147 4.0743-1.5812 5.8503-5.4917 5.6913-20.791 8.4151-28.447 4.6384 4.6384-8.9613 9.2541-17.927 13.919-26.868 1.5979-3.0632 3.454-5.9997 4.9408-9.113 1.2609-2.6413 3.8878-3.4624 6.7837-5.6077zm-308.27 387.43c7.7793 0.25218 12.599-4.5488 12.225-11.943-0.21393-4.2189-1.3218-8.4019-1.433-12.616-0.21274-8.1067 2.9951-12.367 10.52-14.81 1.0063-0.32628 2.0915-0.42667 3.0823-0.78761 5.1296-1.868 6.6128-4.4508 5.5204-9.8086-0.8127-3.987-3.0943-7.2582-5.2694-10.615-4.489-6.9271-7.5582-14.067-2.6975-22.244 1.8214-3.0656 0.62028-5.6232-2.3401-7.3478-1.3708-0.79956-2.8122-1.4963-4.2703-2.1262-14.861-6.4036-30.028-12.099-44.54-19.308-6.6319-3.295-12.292-1.7127-17.319 3.3942-7.4518 7.5701-14.902 15.143-22.463 22.604-8.6947 8.5788-17.618 16.929-26.231 25.586-5.6375 5.6662-5.4858 9.1441 0.66929 13.706 18.577 13.769 37.382 27.174 59.723 34.481 10.334 3.3799 20.566 7.0729 30.85 10.607 1.4927 0.51392 3.0202 0.9358 3.9727 1.2286zm50.428-374.45c0 11.954-0.092027 23.909 0.03705 35.862 0.068124 6.3116 1.8525 8.494 7.7159 10.476 7.0311 2.376 13.003 0.79717 18.068-4.6551 3.803-4.0934 7.7661-7.851 13.479-9.4883 3.4564-0.99078 4.7985-0.30357 5.5336 3.1026 1.096 5.0734 0.18405 10.069-0.17688 15.074-0.38604 5.3459 1.5047 9.3294 6.1754 11.935 3.0094 1.6792 5.9447 3.601 9.1405 4.8117 6.2686 2.3736 10.291 0.23186 12.066-6.2542 0.83661-3.0572 1.0266-6.2853 1.7127-9.3915 1.1246-5.1033 2.9616-9.8015 8.7987-11.154 2.6473-0.61431 3.9727-2.3712 5.0388-4.6157 5.2993-11.17 13.438-19.601 24.46-25.232 11.809-6.0343 10.685-10.48 0.51989-17.484-13.515-9.3114-27.527-18.193-43.223-23.597-18.875-6.4992-38.519-9.9317-58.101-13.43-8.4318-1.5071-11.13 1.0936-11.22 9.7764-0.11952 11.418-0.029879 22.842-0.025098 34.265zm-398.07 175.78v0.11474c-10.638 0-21.276 0.004781-31.914-0.001195-10.998-0.005976-12.175 0.99676-11.861 11.696 0.68841 23.433 3.4887 46.615 8.7186 69.491 2.4297 10.627 5.2993 21.13 8.8286 31.439 1.3876 4.0516 3.2855 7.7996 7.8605 9.4047 16.475 5.7798 29.076-2.2134 30.466-19.426 0.043026-0.52945 0.044221-1.0637 0.084856-1.5931 1.2107-15.713 5.873-30.196 15.357-42.949 4.4424-5.9746 8.641-12.157 13.441-17.83 6.0558-7.1602 9.2565-14.743 6.32-24.17-0.54021-1.733-0.29401-3.7002-0.4936-5.5503-0.91071-8.4426-3.0775-10.515-11.703-10.599-11.701-0.11115-23.403-0.026293-35.104-0.026293zm496.05 406.11c-5.6244-5.4368-11.475-10.355-17.797-14.596-10.006-6.7132-14.878-15.372-12.859-27.718 1.188-7.2582-0.13744-14.365-4.6097-20.483-6.7813-9.2756-15.817-14.782-27.406-15.697-8.3207-0.65733-16.377 0.80195-24.369 3.0297-9.0772 2.5313-10.802 4.3504-10.871 13.808-0.15896 22.052-0.22349 44.105-0.16135 66.157 0.025098 9.223 3.3321 12.249 12.222 11.053 25.25-3.399 50.467-7.0502 75.712-10.486 3.8018-0.51631 7.0885-1.6433 10.14-5.0663zm-235.4-321.19c-5.4535-5.3411-5.4535-5.3411-6.0666-12.75-0.66212-7.9992-3.9177-10.673-11.801-9.3258-4.0336 0.6896-7.3454-0.18883-10.067-3.2484-2.1178-2.3819-4.1902-4.8093-6.3845-7.1207-10.311-10.862-23.094-15.702-37.938-15.386-5.2754 0.11234-5.9949 1.0123-5.1894 6.1646 0.12191 0.78044 0.38842 1.5429 0.62865 2.3007 8.5262 26.769 19.979 52.063 37.659 74.175 9.027 11.291 11.63 11.446 21.924 1.2525 13.976-13.837 27.793-27.834 41.775-41.665 9.8624-9.756 10.192-15.495 1.084-25.803-1.0362-1.1724-1.88-2.6162-3.8568-3.1444-7.888 10.979-11.654 24.793-21.769 34.552zm240.95 76.068c-2.7441-1.8955-5.9423-2.75-9.0401-1.9385-13.835 3.6237-28.359 3.693-41.985 8.4199-10.198 3.5365-20.318 3.2317-30.062-1.874-0.937-0.49121-1.9003-0.97046-2.9042-1.2932-7.3155-2.3545-17.725 2.0019-18.948 8.4665-1.8597 9.8146-3.4146 8.9003 6.8363 9.7106 8.9457 0.70753 17.838 1.5047 25.135 8.1175 3.6488 3.3058 8.7449 3.6177 13.62 2.327 17.511-4.6372 34-11.778 49.821-20.523 4.4484-2.4596 7.2594-6.069 7.5259-11.413zm149.96-179.95c16.249 0 31.595 0.37528 46.911-0.13505 9.7967-0.32628 13.982-6.8757 10.411-15.807-3.2078-8.0219-7.0705-15.819-11.793-23.678-6.7622 4.3348-13.652 7.6215-20.545 10.901-4.5559 2.1668-8.9732 4.5858-12.875 7.7888-6.2877 5.1559-10.805 11.411-12.109 20.931zm-561.14 36.272c0-1.0577 0.15656-2.1417-0.026293-3.1672-0.80195-4.4818 3.6058-10.465-1.0254-13.125-3.6022-2.0676-9.2792-0.81868-14.007-0.55814-5.6865 0.31313-7.5295 2.3078-7.2546 8.0314 0.4673 9.7608 1.1712 19.514 2.8947 29.164 0.38364 2.1501 0.9131 4.0623 2.7668 5.4666 7.9669 6.0331 12.805 4.3743 14.949-5.2826 1.4987-6.755 1.323-13.667 1.7031-20.529zm436.22-147.65c4.3635-1.5597 7.5402-2.8636 10.816-3.8281 5.1475-1.5131 7.2295-0.64777 9.5804 4.2093 1.3768 2.8433 2.0903 6.0009 3.3321 8.9206 0.94776 2.229 0.89636 5.7212 4.8774 4.9683 3.5329-0.66809 6.761-1.8907 7.4052-6.0618 0.36452-2.364 0.52826-4.7962-0.70634-7-3.0429-5.4344-6.8387-10.093-12.928-12.375-10.232-3.8329-17.82-0.35257-22.377 11.166zm4.7806 317.34c11.518 10.276 24.755 13.567 32.33 8.7031-8.8597-8.2394-20.387-5.7248-32.33-8.7031zm-59.865-49.85c2.5875 1.684 4.7507 2.3975 7.1279 1.1318 3.2592-1.7366 6.3439-3.754 8.6684-6.6606 0.74339-0.92744 0.18286-2.3819-0.97286-2.358-3.393 0.070514-6.7873 0.46013-9.9998 1.7198-2.6688 1.047-4.189 3.0297-4.8236 6.167zm163.63 113.81c6.0809 7.3036 11.75 14.176 19.255 21.265-5.4164-9.0366-11.926-15.143-19.255-21.265z"/>
<path d="m1692.2 1364.2c-51.386 0.36572-95.508-14.445-136.32-39.71-24.866-15.392-49.5-31.227-73.514-47.907-18.279-12.696-38.16-15.043-59.306-13.359-1.5991 0.12669-3.1385 0.33464-4.5739 1.1832-3.1337 1.8525-3.4564 3.5556-0.73622 6.0511 4.1185 3.7851 8.6338 7.055 13.398 10.015 29.137 18.101 58.582 35.704 87.249 54.564 15.213 10.009 28.613 22.07 41.663 34.621 4.4089 4.2392 9.0652 8.2274 13.401 12.538 4.697 4.6695 5.0065 8.3637 0.86649 13.27-4.6384 5.4953-9.8624 10.46-15.918 14.421-8.1904 5.3555-14.469 5.2216-21.858-1.0732-4.6396-3.9512-8.8704-8.4258-12.989-12.936-25.889-28.35-53.49-54.826-84.338-77.801-17.528-13.055-36.112-24.427-55.263-34.902-9.2935-5.0842-18.818-5.9543-28.061-0.24859-19.231 11.871-38.81 23.172-57.661 35.672-18.99 12.592-35.177 28.348-51.223 44.284-14.345 14.247-28.481 28.706-42.769 43.011-11.628 11.643-19.358 11.713-31.374 0.45296-12.872-12.061-12.8-18.08 0.50316-29.832 40.397-35.684 83.691-67.324 130.8-93.639 5.5634-3.1086 11.291-6.0774 14.992-11.603 2.6293-3.9237 2.37-4.8559-1.6792-7.4841-2.2983-1.4916-4.7854-2.0915-7.5092-2.3031-14.235-1.1055-27.475 1.7844-39.641 9.4023-28.173 17.64-56.862 34.515-84.097 53.572-30.462 21.316-64.254 33.835-100.38 40.889-9.1238 1.782-18.288 3.4074-27.485 4.7675-17.749 2.6258-34.955-0.83422-52-5.2766-9.7668-2.5457-19.45-5.4176-29.157-8.1928-19.387-5.5419-36.952-14.865-53.488-26.191-9.2122-6.3092-18.148-13.024-27.183-19.592-1.6386-1.1904-4.0348-2.1322-2.6712-4.9324 1.0673-2.1919 3.0524-1.5764 4.8965-1.4426 4.7973 0.3466 9.5182 1.1187 14.02 2.8277 46.637 17.7 93.625 16.552 140.9 2.7931 19.179-5.5814 37.709-12.851 56.024-20.755 39.83-17.188 80.523-31.937 122.61-42.588 34.155-8.6422 68.515-8.7856 102.63-0.27369 21.999 5.4881 43.654 5.5132 65.393-0.35257 26.607-7.1781 53.454-7.2665 80.705-4.5033 52.846 5.3603 102.01 22.469 149.74 44.757 20.254 9.4596 41.052 17.519 62.786 23.019 42.197 10.678 83.764 8.5334 124.8-5.7953 5.0101-1.7497 10.13-3.2006 15.235-4.6647 1.9947-0.57248 4.5093-1.7222 6.0045 0.18047 1.8668 2.376-0.49838 4.5296-1.7222 6.3869-1.4426 2.1883-3.2843 4.1914-5.2455 5.9483-29.057 26.022-62.842 42.328-101.24 49.134-13.914 2.468-27.918 3.8018-39.207 3.5986h-0.004781z"/>
<path d="m1312.5 1404.9c-1.9923 38.773-3.987 77.546-5.9782 116.32-2.4142 47.007-4.9408 94.008-7.1984 141.03-1.4927 31.079-2.6353 62.174-3.8675 93.266-1.4127 35.607-2.8062 71.214-4.1042 106.83-0.89995 24.718-1.4736 49.449-2.4632 74.163-1.5728 39.324-3.215 78.645-5.4487 117.94-2.1728 38.229-4.0062 76.48-5.6244 114.74-1.8549 43.843-3.154 87.709-4.9778 131.55-2.3879 57.391-5.6507 114.74-9.6186 172.04-3.2532 46.976-5.077 93.99-6.2793 141.05-0.87007 34.019-3.007 68.004-4.581 102.01-0.1733 3.7528-1.1712 7.2988-2.3126 10.875-1.1426 3.5819-3.0811 4.9527-6.9104 5.0603-9.3712 0.26413-9.3927 0.47089-10.437-9.0628-1.8322-16.738-0.8127-33.488 0.023903-50.218 1.3661-27.356 3.0178-54.696 4.4161-82.048 2.4967-48.865 5.0531-97.729 7.2809-146.61 1.6469-36.129 2.6963-72.286 4.2237-108.42 2.5027-59.251 5.2037-118.49 7.7685-177.74 1.6899-39.056 3.2568-78.116 4.9276-117.17 2.9317-68.548 5.8563-137.1 8.868-205.64 2.2995-52.338 4.6719-104.67 7.1195-157.01 2.5708-54.988 5.23-109.97 7.931-164.96 1.7473-35.589 3.656-71.171 5.4368-106.76 0.19959-4.0097 0.72426-7.9203 1.8226-11.785 1.7246-6.0678 2.0067-6.363 8.0111-6.5901 6.6725-0.25218 9.86 1.4031 11.655 6.1299 0.37408 0.986 0.7398 2.0389 0.78283 3.0751 0.10995 2.6497 0.03705 5.3065 0.03705 7.9609-0.16971-0.004781-0.33703-0.010756-0.50316-0.016732v-0.001195z"/>
<path d="m1922 904.31c1.9206 3.6237 2.6437 7.0466 2.0652 10.948-6.9068 46.558-16.589 92.567-27.294 138.37-5.6101 24.009-17.789 44.816-32.066 64.567-3.558 4.9228-7.8522 9.3509-10.525 14.85 1.8095 1.9983 3.0417 0.32747 4.1986-0.42906 49.47-32.415 102.17-59.041 154.46-86.422 28.484-14.916 51.89-35.99 72.481-60.408 2.9054-3.4444 5.5861-7.0084 10.148-8.6924 2.8648-1.0577 3.9536-0.196 4.4268 2.3784 0.53423 2.903 0.57845 5.6853-0.70753 8.5585-16.853 37.603-36.443 73.587-66.631 102.3-31.203 29.682-65.326 55.412-106.44 70.244-23.551 8.4952-48.074 13.469-72.329 19.385-21.944 5.3519-44.1 9.719-66.275 13.994-1.0422 0.20079-2.0939 0.47328-3.1456 0.48882-3.7133 0.059758-8.5908 0.2964-9.964-3.0488-1.3481-3.2855-0.48523-7.8844 2.2134-11.275 0.32986-0.41591 0.67885-0.81988 1.0338-1.2155 19.854-22.149 32.708-48.309 43.293-75.746 11.477-29.75 21.476-60.052 33.48-89.608 13.851-34.105 29.805-67.065 52.396-96.399 3.9536-5.1308 6.9379-11.575 15.183-12.844l-0.004781-0.004781z"/>
<path d="m1510.4 2564.4c1.8525 41.812 3.5365 81.141 5.3698 120.46 0.63463 13.62-0.72068 27.101-2.2672 40.574-0.23903 2.0891 0.70873 5.028-2.6771 5.8921-3.7647 0.9609-7.7542-0.28684-9.7835-3.3679-1.9146-2.9066-3.2664-6.0905-4.0217-9.4979-0.98003-4.4245-1.6637-8.8812-1.531-13.442 0.67168-23.18-1.9505-46.217-3.0572-69.318-3.3201-69.336-6.8662-138.66-10.109-207.99-2.2612-48.354-4.1042-96.726-6.2471-145.08-2.6497-59.784-5.1643-119.58-8.2095-179.34-2.7082-53.12-6.2327-106.2-9.0748-159.31-2.4728-46.208-4.5057-92.439-6.7192-138.66-3.2425-67.74-6.3379-135.48-9.7525-203.22-2.8122-55.778-6.0116-111.54-9.0007-167.31-0.51272-9.5564-0.97524-19.121-1.1605-28.687-0.071709-3.6882 0.36452-7.4661 1.1689-11.07 0.94417-4.2237 5.0149-7.3406 8.4784-7.2104 3.6488 0.13744 7.5211 3.117 8.6159 7.1745 2.854 10.577 3.9691 21.439 4.4758 32.336 1.9051 40.914 3.7492 81.83 5.4929 122.75 3.068 72.012 5.8563 144.04 9.125 216.04 2.2553 49.68 5.2443 99.327 7.6801 149 3.0488 62.16 5.8228 124.33 8.7963 186.49 2.4154 50.471 4.7089 100.95 7.4948 151.4 2.8887 52.308 6.3224 104.59 9.4859 156.88 2.2959 37.965 4.1639 75.948 5.3758 113.97 0.45535 14.351 1.4366 28.686 2.0509 40.541v0.016732z"/>
<path d="m968.3 1201c-5.9626 1.6637-10.957 0.97883-15.897 0.017927-36.768-7.1578-73.565-14.163-110.27-21.623-44.552-9.0545-83.536-29.549-117.47-59.473-29.481-25.995-55.407-55.13-74.817-89.622-5.0961-9.0569-8.9505-18.693-13.173-28.154-2.2421-5.0232-2.7405-10.159 1.5441-15.586 4.6647 3.7133 9.0903 7.3598 12.7 11.905 19.353 24.367 43.464 42.887 70.85 57.251 34.37 18.028 68.822 35.896 102.96 54.366 12.9 6.9809 25.2 14.813 37.056 23.406 4.734 3.4313 9.4776 6.8769 14.9 9.2087 1.6684 0.71829 3.4851 2.1393 5.1344 0.55814 1.7808-1.7055 0.10876-3.3632-0.79119-4.9001-2.2887-3.9082-4.8368-7.6263-7.8223-11.052-21.674-24.869-34.791-53.517-40.456-86.151-6.4945-37.414-12.524-74.952-21.729-111.86-1.1533-4.6229-2.0198-9.3688-1.4007-14.221 0.20318-1.5896 0.14939-3.4098 1.8178-4.1484 2.1417-0.94776 3.4134 0.7398 4.6934 2.0963 4.5619 4.8404 8.984 9.7847 12.936 15.163 30.05 40.885 51.623 86.046 67.629 134 6.8112 20.41 12.758 41.112 21.227 60.947 8.6183 20.189 19.696 38.85 33.887 55.652 5.818 6.8889 11.767 13.712 16.497 22.212v0.003585z"/>
<path d="m1925.1 1061.6c-2.7835-5.6447-2.7835-10.881-0.39201-15.909 9.6114-20.216 12.938-41.964 16.389-63.789 5.5682-35.197 9.6031-70.542 12.535-106.05 2.9735-36.012 6.1706-72.03 15.715-107.1 2.0939-7.6944 4.336-15.335 7.6394-22.625 0.98839-2.1824 1.5728-4.795 4.7926-4.3073 2.8421 0.43026 2.6795 3.0811 3.0321 4.9945 3.3775 18.283 6.7538 36.571 9.8851 54.898 3.442 20.165 6.8315 40.34 8.7079 60.734 3.0213 32.851 1.6971 65.3-8.2705 97.061-0.74458 2.3736-4.134 5.7678-0.42189 7.6311 2.566 1.2872 4.0528-2.664 5.8407-4.434 1.4951-1.4808 2.7596-3.2472 3.8938-5.0352 21.529-33.893 48.088-63.555 76.827-91.381 13.203-12.786 25.635-26.249 36.657-40.984 13.932-18.625 25.399-38.613 33.608-60.421 1.1211-2.9795 2.2146-5.9794 4.2117-8.5477 0.85095-1.0924 1.7174-2.119 3.2078-1.9003 1.6457 0.24262 1.7545 1.6876 2.0461 2.9879 2.0091 8.9206 2.2696 17.93 1.1736 26.967-7.7434 63.901-33.893 119.11-78.413 165.6-22.764 23.77-48.624 43.74-76.513 61.031-23.059 14.295-45.704 29.187-68.023 44.592-4.2081 2.9054-8.5681 5.3256-14.128 5.9865v-0.005976z"/>
<path d="m2117.9 542.01c6.6451-0.015537 12.541 1.2979 18.061 3.9918 49.469 24.135 98.919 48.374 145.92 77.11 67.635 41.356 112.64 100.12 133.19 177.05 4.1842 15.673 7.6753 31.509 8.482 47.798 0.14461 2.9186 0.16254 5.8455 0.18525 8.7688 0.009561 1.145-0.53184 2.0963-1.6696 2.3903-1.078 0.27967-2.0676-0.08127-2.8158-0.99556-3.8926-4.7543-7.1004-9.86-9.4549-15.609-9.0342-22.058-21.538-42.06-36.391-60.653-14.324-17.928-30.469-34.095-47.685-49.191-34.597-30.337-67.505-62.496-101.41-93.576-2.2074-2.0234-4.0874-7.1805-7.8366-4.5571-2.9449 2.0604 0.59877 5.7332 1.3075 8.6577 0.49479 2.0449 1.3434 4.0599 2.3449 5.9208 11.942 22.194 14.155 46.515 15.814 71.01 2.2337 32.968-2.3987 65.24-9.3843 97.303-0.33942 1.5549-0.53423 3.0907-1.5489 4.4543-2.6138 3.5126-4.544 3.7098-7.7255 0.8139-2.4632-2.2409-3.6392-5.2156-4.8918-8.1318-4.9647-11.567-6.9175-23.977-9.7596-36.113-9.2063-39.318-17.759-78.794-27.269-118.04-8.9386-36.89-25.024-70.536-48.581-100.46-4.134-5.2503-7.1566-10.997-8.8704-17.955l-0.004781 0.005976z"/>
<path d="m1573.9 1239.6c4.9981-4.0695 9.7728-7.3502 15.471-8.9983 40.628-11.746 74.545-34.485 104.27-63.941 30.423-30.149 61.685-59.413 92.835-88.8 4.6802-4.4149 9.7716-8.1999 15.395-11.281 2.425-1.3278 5.4786-2.3198 7.4542-0.35735 1.7569 1.7449 2.162 4.7962 1.0003 7.5092-2.4035 5.6184-4.9312 11.188-7.196 16.861-14.246 35.678-34.588 67.557-59.507 96.693-7.6944 8.9959-16.259 16.745-26.246 23.053-5.8383 3.687-11.465 7.7123-17.121 11.68-1.3039 0.91429-2.4907 2.2684-1.4688 4.0396 0.77326 1.3422 2.2636 1.1067 3.5723 0.96568 13.741-1.4832 27.478-2.9951 41.22-4.4639 28.806-3.0799 57.525-6.9247 86.437-9.0162 33.574-2.4286 66.449-8.1306 97.458-22.036 10.946-4.9085 21.47-10.569 31.339-17.379 4.2332-2.9198 8.8621-4.7878 13.694-6.2961 1.2681-0.3956 2.5899-0.70156 3.7026 0.45296 1.58 1.6398 0.29281 2.9879-0.57128 4.2129-3.2162 4.5631-6.1993 9.3497-9.8672 13.526-30.841 35.115-66.901 62.999-111.19 79.232-36.604 13.416-74.297 17.699-112.98 12.73-46.705-6.0009-92.603-16.196-138.42-26.82-10.11-2.3425-20.401-4.0169-29.285-11.566h0.003585z"/>
<path d="m738.35 975.41c0.83661-6.7239 0.46492-12.102-0.98839-17.529-3.2962-12.314-6.6212-24.614-8.3015-37.311-2.021-15.273 0.68004-30.245 2.462-45.26 3.8842-32.726 8.0517-65.417 12.066-98.127 0.58204-4.7412 0.9358-9.511 1.433-14.263 0.10995-1.0505 0.16254-2.1943 0.62028-3.1038 1.4306-2.8409 2.9508-6.7873 6.0403-6.8363 3.5245-0.057367 5.3818 3.6249 6.3905 7.0813 4.2452 14.567 7.4625 29.333 9.2995 44.417 3.4695 28.491 7.1745 56.954 10.673 85.443 3.4325 27.963 6.6833 55.948 10.1 83.913 3.5628 29.164 9.1441 57.765 23.859 83.768 1.0362 1.831 1.7138 3.8866 2.3831 5.8957 0.6669 1.9983 1.1127 4.0695 1.7772 6.5686-6.5578 0.55455-12.442-0.27608-17.853-3.497-53.606-31.907-104.58-67.356-150.49-109.87-38.325-35.49-61.566-78.783-70.185-130.13-0.48284-2.8779-0.89636-5.824-1.8632-8.5525-5.2264-14.74-1.6206-29.839-3.0668-45.443 5.4666 1.4629 8.7174 3.5747 10.281 8.0888 9.3318 26.967 26.004 49.222 45.272 69.719 26.416 28.102 53.683 55.394 79.566 84.012 9.3604 10.35 16.987 21.771 24.124 33.633 1.4521 2.413 2.4835 5.236 6.4036 7.3932l0.001195-0.005976z"/>
<path d="m1040.4 1228.9c-1.4904-2.6915-3.5663-3.3572-5.4439-4.2882-29.541-14.649-51.891-36.931-67.878-65.457-13.122-23.415-25.311-47.354-37.927-71.052-2.3007-4.3205-2.7489-8.9732-3.0656-14.185 6.2291 0.03705 10.888 2.26 15.288 6.0391 32.293 27.729 64.157 55.933 95.273 84.981 8.1665 7.6227 16.681 14.882 24.678 22.674 18.09 17.624 39.494 29.469 63.258 37.494 12.834 4.3336 25.735 8.5107 38.192 13.894 1.4629 0.63224 3.0357 1.0553 4.4113 1.8334 2.4787 1.4019 2.5708 3.4492 0.005976 4.6862-2.8492 1.3732-5.9005 2.4919-8.9852 3.1911-44.557 10.1-88.869 21.295-133.81 29.684-28.096 5.2443-56.365 7.6956-84.913 5.4714-16.217-1.2633-32.238-4.0826-47.528-9.6604-35.187-12.838-68.138-29.851-97.099-53.961-9.6473-8.0326-18.093-17.234-26.001-26.947-1.5143-1.8609-2.8457-3.8412-3.5484-6.1861-1.715-5.7236 0.41591-8.0565 6.3726-6.7132 1.7748 0.40038 3.4695 1.3123 5.0949 2.1871 6.3188 3.4038 12.653 6.7861 18.876 10.36 22.285 12.802 46.548 19.33 71.826 22.351 34.582 4.1328 69.312 6.7825 103.99 9.9186 19.592 1.7712 39.175 3.6392 58.756 5.53 3.4803 0.33345 6.8291 0.40994 10.171-1.8441h0.001195z"/>
<path d="m2247.5 940.22c1.5549-26.532 2.921-53.079 4.7316-79.595 1.2167-17.795 5.0412-35.238 8.4402-52.703 3.9846-20.473 3.7444-40.682-2.3162-60.697-2.5684-8.4868-3.6237-17.131-3.4612-25.96 0.045416-2.4214 0.029879-4.985 2.566-6.2638 2.5588-1.2896 4.6683 0.2725 6.5052 1.77 2.4656 2.0126 4.783 4.2213 7.0514 6.4598 22.899 22.593 46.147 44.81 70.393 65.969 19.918 17.382 34.024 39.224 47.266 61.78 23.898 40.709 36.188 84.779 39.199 131.68 0.68124 10.614 1.2896 21.218 1.4856 31.852 0.13027 7.1076-2.1943 13.571-4.6061 20.059-0.58084 1.5633-1.1868 2.9831-3.1194 3.1385-2.1788 0.17569-3.4731-0.87844-4.1627-2.8994-1.1999-3.5185-2.7955-6.9367-3.6452-10.533-7.7362-32.744-22.386-62.4-40.195-90.666-2.266-3.5974-4.3898-7.306-6.9068-10.722-17.581-23.847-31.952-49.542-44.335-76.403-2.7883-6.0475-6.363-11.659-10.18-17.11-0.91788-1.3111-1.9206-2.75-3.8221-2.1596-1.9314 0.59997-1.8931 2.3473-1.8023 3.95 0.22708 3.9787 0.44579 7.9609 0.79478 11.93 2.511 28.612-1.8525 56.279-12.454 82.822-11.14 27.894-21.077 56.208-30.947 84.556-1.8477 5.3077-4.4687 10.214-7.2211 15.071-0.77087 1.3613-1.3959 2.9867-3.3142 3.0453-2.413 0.0741-2.8552-1.9565-3.6727-3.5926-3.5699-7.1482-3.154-15.024-3.858-22.63-0.58562-6.3236-0.29401-12.753-0.060953-19.124 0.52348-14.344 1.2537-28.681 1.8991-43.021-0.08127-0.003585-0.16613-0.008366-0.25098-0.013147v0.005976z"/>
<path d="m752.1 566.01c5.3949 8.1342 6.3331 16.561 4.9563 25.43-7.3801 47.549-16.815 94.686-28.945 141.26-7.0968 27.245-15.057 54.268-21.972 81.557-4.9491 19.528-5.7092 39.428-1.7019 59.315 1.1963 5.9339-0.10876 11.555-1.1629 17.825-4.336-2.0174-7.2952-4.9228-9.9066-8.2776-24.994-32.108-50.083-64.143-74.96-96.343-16.736-21.662-25.843-46.846-32.814-72.95-5.5622-20.827-9.2266-42.031-12.284-63.335-0.74817-5.2204-0.30954-10.617-0.33584-15.933-0.040635-7.9788 0.5665-16.01-0.12071-23.929-1.9385-22.335 4.9527-43.048 10.905-63.971 0.21752-0.7649 0.40396-1.5489 0.72187-2.2732 0.43743-0.99437 1.139-1.8274 2.3019-1.9015 1.3947-0.089637 1.7043 1.0876 1.9601 2.076 1.923 7.4566 4.4233 14.832 5.5634 22.409 2.7524 18.275 8.2203 35.72 15.12 52.739 18.678 46.071 34.557 93.155 51.108 140 1.7198 4.8667 2.6066 10.319 7.2056 13.745 2.7166-1.8537 2.0485-4.4735 2.1513-6.6988 2.0796-45.205 16.621-86.325 40.538-124.42 7.6334-12.156 15.453-24.197 22.391-36.783 5.1463-9.3353 9.7058-18.917 13.187-28.99 1.3075-3.7862 2.9018-7.3299 6.0929-10.55v-0.003585z"/>
<path d="m1334.5 2056.7c-1.3051 50.248-2.6939 100.49-3.8962 150.74-1.9959 83.486-3.8508 166.97-5.8073 250.46-1.1904 50.783-2.4309 101.57-3.7098 152.35-0.84378 33.5-2.5242 66.964-4.7352 100.4-0.35376 5.3591-1.8298 10.472-3.3154 15.566-1.2322 4.2249-2.7441 4.6635-7.8928 4.3109-3.8042-0.26054-3.0727-2.9114-3.3452-5.1117-1.6732-13.515-1.3326-27.087-0.9358-40.644 1.7748-60.61 3.7922-121.21 5.42-181.83 1.2561-46.789 2.0079-93.595 3.0823-140.39 1.7473-76.042 3.6667-152.08 5.3328-228.13 0.92744-42.277 1.3852-84.564 2.2409-126.84 1.433-70.729 2.125-141.48 4.9193-212.18 2.9927-75.737 5.7248-151.47 7.2211-227.26 0.7888-39.887 1.4629-79.775 2.1226-119.66 0.2474-14.902 1.1963-29.745 2.9461-44.549 0.57845-4.9037 2.4752-9.1907 4.7746-13.411 0.92624-1.6995 1.9063-3.1791 4.2296-2.8791 2.4058 0.30954 2.7548 2.2576 3.2628 3.9954 1.4222 4.8738 2.0736 9.8194 1.9732 14.945-0.75175 38.557-1.3206 77.117-2.0688 115.68-1.0625 54.776-2.3031 109.55-3.3333 164.32-1.0493 55.842-1.684 111.69-2.9556 167.52-1.5382 67.532-3.5556 135.05-5.365 202.58-0.053782-0.001195-0.10876-0.00239-0.16493-0.003585v0.022708z"/>
<path d="m1367.6 2057.2c-1.9338-88.045-2.8349-176.09-3.1887-264.15-0.4195-104.01-1.2203-208.03-1.9182-312.04-0.14103-21.014-0.57965-42.025-0.84019-63.038-0.086051-6.9152-0.196-13.84 1.0135-20.695 1.0625-6.026 4.1221-9.7489 7.8486-9.5612 3.6655 0.18525 6.3212 3.3201 7.3287 9.0927 1.8346 10.509 2.4046 21.118 2.4094 31.782 0.051392 109.87-0.10398 219.74 0.29042 329.61 0.33345 92.842 1.3852 185.68 1.9911 278.52 0.5426 82.999 0.62148 166.01 1.4437 249 0.69199 69.692 2.9939 139.37 2.8827 209.07-0.10637 66.508 0.047806 133.02 0.088441 199.52 0.007171 10.942-1.5907 21.736-3.0584 32.538-0.26532 1.9529 0.31194 4.6372-2.8516 4.8069-2.9006 0.15537-5.7941 0.43265-7.4064-3.1014-3.2879-7.2068-4.4938-14.795-4.0097-22.557 0.79478-12.769 0.42308-25.521 0.26413-38.288-2.2815-183.01-1.8142-366.05-2.2792-549.08-0.053782-20.481-0.008366-40.963-0.008366-61.445v0.025098z"/>
<path d="m2234.1 1191.6c-3.9082-6.0833-4.7065-11.851-3.5855-18.605 5.9244-35.685 17.217-69.578 32.594-102.24 14.723-31.27 29.094-62.706 43.835-93.968 5.9292-12.572 10.66-25.483 13.512-39.086 1.1485-5.4762 2.7512-10.821 5.1021-15.913 0.76848-1.6625 1.3063-3.7098 3.5281-3.9344 2.3676-0.24023 2.9413 1.9087 3.8687 3.442 1.0995 1.819 2.119 3.6882 3.1182 5.5658 17.728 33.33 35.987 66.382 52.238 100.48 18.077 37.932 26.75 77.784 24.306 119.85-1.8979 32.659-10.773 63.861-20.437 94.862-1.5967 5.1236-4.832 9.4501-7.8761 13.815-0.88083 1.2633-1.6362 2.9389-3.607 2.615-1.917-0.31672-2.1991-2.0485-2.6807-3.5556-0.89517-2.7955-1.715-5.5945-1.3159-8.5943 3.6966-27.702-1.3983-54.543-7.8868-81.268-6.7729-27.894-15.372-55.313-21.461-83.385-3.1636-14.588-5.1762-29.305-5.812-44.221-0.11832-2.7512 0.76251-6.5638-3.0811-7.2725-3.0931-0.57128-4.103 2.8935-5.4893 4.985-1.1473 1.7306-2.0055 3.8018-2.4321 5.8383-4.8882 23.352-15.635 43.996-29.322 63.226-18.352 25.783-36.934 51.4-55.332 77.15-2.9974 4.1986-6.4228 7.7219-11.783 10.214v-0.004781z"/>
<path d="m658.26 337c3.062 3.736 2.7524 7.9765 1.8429 12.174-5.469 25.275-4.6719 50.679-1.8453 76.158 3.6022 32.465 9.1848 64.752 9.1752 97.548-0.00239 10.095-0.59758 20.189-0.74219 30.285-0.071709 5.0412 0.24262 10.088 0.42428 15.132 0.03944 1.1115 0.52706 2.1405 1.6768 2.4094 1.5537 0.36452 2.4501-0.52228 2.8731-1.9672 0.14939-0.51033 0.31911-1.0147 0.47806-1.5214 10.19-32.484 29.347-59.366 52.615-83.577 20.276-21.098 42.242-40.448 63.508-60.52 1.5107-1.4258 2.9592-3.4265 5.4379-2.358 2.4405 1.0517 1.9828 3.4839 2.1489 5.5527 0.63104 7.8593-1.6182 15.284-3.6452 22.696-5.5957 20.461-15.357 38.962-26.829 56.672-23.698 36.581-47.156 73.319-70.987 109.81-8.9386 13.689-15.141 28.602-21.428 43.539-1.4342 3.4074-2.6855 6.9737-5.4535 9.6509-3.1158 3.013-5.2037 2.9616-7.8725-0.5175-1.1031-1.4378-1.9015-3.1911-2.5074-4.9181-13.996-39.833-28.567-79.466-40.866-119.89-11.867-38.999-10.893-78.004-1.3792-117.25 7.0789-29.205 19.07-56.263 34.23-82.06 2.1608-3.6763 4.9659-6.112 9.1441-7.0526v0.00239z"/>
<path d="m1414 2054.5c-1.9959-72.592-4.0719-145.19-5.9602-217.78-1.3147-50.524-2.4238-101.06-3.5281-151.58-1.476-67.549-2.5027-135.11-6.2423-202.59-1.1629-20.979-1.9278-41.98-3.0572-62.962-0.37647-6.9988 0.76131-13.781 1.9218-20.592 0.2223-1.3015 0.40635-2.768 1.1234-3.7994 3.54-5.0949 6.424-5.9184 10.56-0.87963 1.1234 1.3696 1.6469 3.3046 2.2003 5.0567 1.8632 5.8933 2.2218 11.981 2.321 18.127 0.74339 46.013-0.20676 92.053 2.0915 138.04 1.8441 36.923 4.5237 73.801 5.4977 110.77 1.2262 46.54 1.9063 93.091 1.8692 139.64-0.064538 82.216 2.5074 164.37 4.9384 246.54 2.1644 73.121 3.6261 146.26 5.5336 219.38 1.2203 46.801 2.7393 93.595 4.0313 140.39 1.8788 68.072 3.6667 136.15 5.5085 204.22 0.8139 30.047 1.586 60.096 2.5576 90.14 0.2211 6.8004-1.1342 13.202-3.2711 19.531-0.65614 1.9397-0.90712 4.3408-3.895 4.1902-3.0297-0.15178-2.8779-2.5708-3.3608-4.5774-4.4352-18.456-6.0068-37.233-6.449-56.155-2.0031-85.898-4.0779-171.79-6.0797-257.69-1.8119-77.655-3.5173-155.31-5.3567-232.96-0.98242-41.486-2.1477-82.968-3.2305-124.45 0.093222-0.00239 0.18525-0.004781 0.27608-0.007171v-0.003585z"/>
<path d="m1084.9 2820.6c-0.4183 7.1518-1.1007 14.171-1.1916 21.197-0.34301 26.598-0.50196 53.199-0.70394 79.799-0.015537 2.125 0.031074 4.2655 0.26532 6.3749 0.69678 6.2889 2.8481 8.8322 9.1501 10.385 3.3405 0.82346 6.7992 1.1701 10.205 1.7282 3.2891 0.53901 4.4101 2.6676 4.0432 5.7248-0.37169 3.0966-1.9505 4.5894-5.3399 4.379-11.944-0.741-23.899-1.4031-35.876-0.90473-6.1096 0.25457-12.222 0.50914-18.322 0.91549-3.5759 0.23664-5.6256-1.1772-5.9459-4.7758-0.28564-3.2209 1.3625-4.9515 4.4782-5.4284 0.78761-0.12191 1.568-0.2964 2.3509-0.44699 12.787-2.4632 15.138-4.7065 16.099-17.652 2.8947-38.991 5.2647-78.012 5.5622-117.13 0.016732-2.1226-0.16135-4.2571-0.39201-6.369-0.93461-8.5394-4.6826-12.887-13.014-15.031-2.0533-0.52826-4.1842-0.74936-6.2769-1.1306-3.2771-0.59997-4.2727-2.8636-4.0647-5.8371 0.23186-3.3213 2.1632-4.4185 5.3997-4.2727 8.7641 0.3944 17.535 0.73143 26.307 0.8139 8.5047 0.077685 17.037 0.49718 25.507-0.60714 3.3608-0.43743 4.9551 0.73143 5.23 4.1137 0.96688 11.924 5.9136 22.575 11.067 33.072 12.883 26.237 23.818 53.429 38.557 78.755 1.3147 2.26 2.0784 4.9276 4.446 6.4646 1.9792-1.2238 2.6497-3.3452 3.5616-5.2204 13.481-27.731 26.542-55.659 38.985-83.873 4.1902-9.5015 7.5199-19.321 10.24-29.329 0.84378-3.1086 2.1812-4.3217 5.536-4.0074 15.666 1.4688 31.349 0.71112 47.026-0.026293 1.0625-0.050196 2.1286-0.058563 3.1875-0.1482 2.9437-0.25218 4.6013 1.2812 4.9563 3.9966 0.38245 2.9245-0.59758 5.3101-3.8639 5.9662-2.3425 0.4697-4.7388 0.67885-7.0741 1.1784-10.455 2.2385-14.14 6.1598-14.195 16.964-0.13147 25.533 0.00239 51.072 0.35376 76.607 0.20796 15.155 0.98959 30.302 1.6194 45.447 0.10995 2.6341 0.65972 5.2635 1.1569 7.8665 1.0242 5.3603 4.4185 8.2968 9.7214 9.125 2.1011 0.32628 4.2105 0.60953 6.3259 0.82346 3.6596 0.3705 5.0854 2.4967 4.7555 5.9734-0.32389 3.4122-2.517 4.2691-5.5897 4.1089-6.9032-0.36213-13.81-0.68721-20.718-0.89636-14.895-0.45177-29.78 0.053782-44.659 0.71231-1.8597 0.08127-3.7205 0.13744-5.5814 0.15298-2.9401 0.023903-4.348-1.6565-4.6037-4.4053-0.2462-2.6437 0.44101-4.795 3.4624-5.3376 2.0915-0.37528 4.1914-0.70992 6.2961-1.0027 9.5051-1.3254 11.877-3.6894 12.217-13.374 0.28803-8.2382 0.13864-16.493 0.0741-24.74-0.18764-23.937-0.41711-47.873-0.67168-71.808-0.025098-2.3509 0.4697-4.7711-0.63941-7.1398-2.4393 0.74936-2.6066 3.1241-3.4337 4.8906-18.358 39.243-36.935 78.39-52.82 118.73-1.5453 3.9225-3.2209 7.4028-8.231 7.1638-3.6369-0.17449-6.2746-1.1115-7.7649-5.2778-15.256-42.613-35.99-82.853-54.144-124.21-0.48404-1.0924-0.66929-2.5923-3.0249-3.0453v-0.00239z"/>
<path d="m739.21 359.66c2.7357-3.4229 4.5081-6.6929 5.8969-10.136 11.821-29.327 23.81-58.588 35.304-88.042 8.3601-21.423 13.363-43.67 14.002-66.772 0.10398-3.7898 1.2406-7.2175 3.454-10.505 5.3208 1.9158 8.4593 5.6949 11.055 10.098 5.732 9.7262 9.468 20.187 11.447 31.275 3.0417 17.051 4.9444 34.228 3.5843 51.548-2.0592 26.214-12.708 49.178-27.698 70.346-17.215 24.309-35.59 47.745-53.817 71.292-6.0212 7.7793-11.997 15.592-18.011 23.377-1.1366 1.4712-2.2397 2.9986-3.5568 4.2978-2.4405 2.4046-4.8977 5.4427-8.8226 4.1555-3.5998-1.1796-3.7982-4.8236-4.2739-7.9537-7.1207-46.854-18.401-92.719-32.159-138.04-5.9674-19.655-9.3389-39.827-8.6995-60.519 0.50436-16.316 3.2735-32.221 8.1701-47.779 1.6158-5.132 4.2464-9.7274 7.1721-14.184 0.85214-1.2979 1.525-3.0082 3.5233-2.5863 1.9075 0.40157 2.0043 2.2792 2.5385 3.7229 0.36691 0.99198 0.56889 2.0449 0.85692 3.0668 15.559 55.235 31.098 110.48 46.751 165.68 0.68602 2.4297 0.60236 5.3244 3.2819 7.655z"/>
<path d="m2329.7 1106.4c4.6539 15.508 7.6215 30.882 10.582 46.266 4.4687 23.212 8.9362 46.428 13.693 69.583 7.2952 35.509 1.1736 68.979-13.471 101.72-9.9198 22.174-24.538 40.89-39.711 59.35-4.3599 5.3041-11.424 6.4574-17.406 9.1692-1.8178 0.82346-3.0417-0.77804-2.9054-2.615 0.26174-3.4946 1.4306-6.804 3.3225-9.725 10.691-16.501 15.385-34.958 17.246-54.187 3.6345-37.566 6.914-75.167 10.333-112.75 0.40157-4.4221 0.38245-8.788-1.0756-12.826-2.8839 0.14103-3.5388 1.6947-4.1735 3.1122-5.6387 12.586-14.72 22.68-23.73 32.817-28.084 31.593-56.154 63.195-83.417 95.505-2.9329 3.4767-6.1634 6.5148-10.285 8.6924-3.9452-3.8639-4.5356-8.3649-3.8807-13.336 1.8895-14.353 6.3546-27.938 11.977-41.202 9.3186-21.985 22.042-41.907 37.696-59.807 28.91-33.058 55.971-67.53 81.329-103.37 3.6799-5.2025 7.845-10.06 11.819-15.053 0.30237-0.38125 0.85334-0.56889 2.0581-1.3374z"/>
<path d="m727.26 2861.8c0-18.073 0.040635-36.147-0.035855-54.221-0.014342-3.4408-0.31911-6.9032-0.78522-10.315-1.2454-9.1083-3.4014-11.323-12.492-12.499-3.0488-0.39321-6.0104-0.46611-6.4574-4.3384-0.33464-2.9042 0.31194-5.3435 3.8735-5.6997 2.1154-0.21035 4.2261-0.54858 6.3463-0.62268 29.727-1.0601 59.439-3.5592 89.201-0.72546 12.739 1.2143 25.23 3.5042 37.29 7.8964 38.178 13.908 56.742 50.355 53.269 86.871-4.25 44.688-34.904 71.53-74.07 79.405-20.269 4.0755-40.709 4.0301-61.132 2.6604-14.895-1.0003-29.723-0.90832-44.591-0.19481-2.9186 0.13983-5.8443 0.147-8.7629 0.30357-2.7357 0.14581-4.7472-0.64897-5.1093-3.6787-0.39321-3.2938 0.4685-5.8001 4.244-6.3726 2.8863-0.43743 5.7762-0.87246 8.641-1.4306 5.5742-1.0864 8.7449-4.2536 9.6054-10.115 0.93222-6.3534 1.0482-12.708 1.0709-19.079 0.054977-15.948 0.017927-31.896 0.017927-47.843-0.04183-0.001195-0.082466-0.001195-0.1243-0.001195zm127.73-1.721c-0.43504-4.7806-0.64658-10.383-1.4951-15.887-4.1806-27.108-17.461-47.054-44.718-55.581-9.4429-2.9544-19.211-4.1508-29.11-3.8627-11.718 0.33942-13.878 2.3879-13.919 14.247-0.11952 35.361-0.065733 70.723-0.03705 106.08 0.003585 4.25-0.03705 8.537 0.47209 12.743 1.5453 12.758 7.8641 18.825 20.622 20.226 26.549 2.9162 48.105-9.425 59.3-33.749 6.3582-13.814 8.1856-28.486 8.8848-44.221z"/>
<path d="m1628.5 2887.7c2.9986-3.5532 2.3413-6.3534 2.3365-8.8991-0.04183-23.388 0.73502-46.795-1.2334-70.147-0.31194-3.699-1.0434-7.361-1.3338-11.06-0.67168-8.543-5.8479-12.671-13.681-14.233-2.6018-0.51989-5.2527-0.79239-7.8773-1.1975-3.3201-0.51392-4.2846-2.7106-4.0886-5.7427 0.21871-3.3703 2.1238-4.4998 5.3232-4.3312 13.536 0.70873 27.079 1.3529 40.641 0.90712 5.8431-0.19122 11.681-0.51631 17.519-0.85573 2.707-0.15776 4.7866 0.38125 5.0256 3.5867 0.23306 3.1361-0.077685 5.9423-3.9966 6.5482-0.52467 0.08127-1.0398 0.22947-1.5668 0.29998-12.465 1.6625-15.464 6.3953-17.095 19.114-1.5931 12.438-1.6672 24.926-1.6696 37.415-0.011952 33.765 0.15178 67.531 0.16374 101.3 0 3.0178 1.2884 6.4538-2.0832 8.7892-3.6213 2.5086-7.7016 3.5759-11.986 3.8101-2.125 0.11593-3.0524-1.8429-4.1448-3.3357-31.734-43.364-66.77-84.095-100.42-125.93-2.572-3.1982-4.9049-6.7861-8.6637-8.7402-2.272 1.9373-1.7891 4.2117-1.7796 6.2483 0.13983 31.625-1.3063 63.273 1.28 94.865 0.21752 2.6425 0.45774 5.3005 0.9609 7.8976 1.9935 10.317 5.1858 13.41 15.511 15.218 1.831 0.3215 3.6835 0.52587 5.5288 0.75534 3.4181 0.42308 5.2802 2.1094 5.0507 5.7857-0.2462 3.9595-2.6628 4.6264-6.0116 4.4699-13.538-0.62746-27.074-1.47-40.638-0.91668-5.5754 0.22708-11.148 0.53662-16.72 0.84736-2.6198 0.14581-4.838-0.18883-5.1392-3.4624-0.28923-3.154 0.021513-5.9256 3.9046-6.614 1.0458-0.18525 2.0855-0.40635 3.1205-0.6406 11.185-2.523 13.853-5.53 15.365-17.167 1.6816-12.954 1.7342-25.984 1.7425-39.007 0.019122-26.057-0.058563-52.112-0.11712-78.167-0.005976-2.3915 0.010756-4.8021-0.27847-7.1673-0.98361-8.0661-4.7268-12.298-12.744-14.355-2.3019-0.59041-4.7292-0.6669-7.0777-1.0972-4.7197-0.86529-5.7822-2.1907-5.4356-6.0941 0.36094-4.0492 3.0369-4.4543 6.2339-4.281 13.007 0.70156 26.02 1.2764 39.049 0.89517 5.04-0.147 10.721-1.9708 14.931-0.21274 4.2715 1.7832 4.8201 8.3338 7.5868 12.501 8.9959 13.551 19.524 25.887 29.967 38.284 16.614 19.722 33.389 39.309 50.097 58.95 1.3469 1.5848 2.7082 3.1588 4.44 5.1726z"/>
<path d="m2106.9 562.11c7.9382 14.857 13.003 29.861 15.678 45.605 11.969 70.446-1.4461 136.24-36.706 197.95-11.497 20.126-25.538 38.519-38.925 57.355-2.4525 3.4516-5.7152 8.1414-9.6999 7.0406-4.1018-1.133-6.0606-6.4718-6.8339-11.023-1.6493-9.7166-2.2648-19.475-1.2191-29.364 3.4074-32.217 12.681-62.9 23.919-93.085 7.7852-20.914 16.706-41.361 25.564-61.832 13.957-32.251 22.434-65.785 23.304-101.05 0.10159-4.1567 0.92624-7.8211 4.9181-11.604v0.001195z"/>
<path d="m1306.8 2845.3c0-13.565 0.013147-27.129-0.011952-40.694-0.004781-2.3915-0.014342-4.8009-0.29281-7.1697-1.231-10.493-3.0022-12.35-13.509-14.607-1.8166-0.38962-3.6548-0.7637-5.4009-1.3768-2.4513-0.8641-2.8564-3.0297-2.6222-5.23 0.2474-2.3294 1.4832-3.9583 4.0862-4.0277 1.0613-0.028684 2.1286-0.03944 3.1875 0.016732 22.59 1.1975 45.176 1.1557 67.769 0.023903 5.267-0.26413 6.6809 0.80314 6.6702 4.4161-0.007171 2.5708-0.7386 4.7041-3.8078 5.1523-2.364 0.3442-4.7053 0.85454-7.0478 1.3302-5.1882 1.0541-8.4928 3.889-9.5636 9.3365-0.62268 3.1624-0.97166 6.3092-0.97405 9.4943-0.017927 27.395-0.053782 54.791 0.059758 82.186 0.032269 7.7231 1.127 15.372 2.9962 22.88 5.371 21.576 19.499 32.232 41.677 31.609 17.858-0.50077 30.081-9.0437 36.939-25.479 3.4146-8.1868 5.5264-16.786 5.818-25.53 0.95612-28.698 1.7389-57.419-1.1306-86.075-0.23664-2.3676-0.72665-4.7161-1.1928-7.055-1.0374-5.2133-4.2906-8.4724-9.2983-9.8875-3.313-0.937-6.7084-1.635-10.106-2.2242-3.6249-0.62746-5.7547-2.1441-5.4021-6.2853 0.37647-4.4245 3.4074-4.0683 6.3534-3.9034 12.483 0.69916 24.974 1.0661 37.474 0.8127 6.3773-0.12908 12.755-0.42428 19.119-0.83302 3.1385-0.20079 5.2921 0.68721 5.6471 4.0145 0.32269 3.0154-0.95373 5.1296-4.0803 5.8754-2.3222 0.55455-4.648 1.1115-6.9498 1.7437-6.2614 1.7198-10.094 5.6985-10.998 12.214-0.65733 4.7328-1.3756 9.474-1.6971 14.235-1.4306 21.241-1.3266 42.519-1.2477 63.794 0.033464 9.0509-0.42548 18.047-1.8632 27.016-4.3551 27.206-19.03 43.402-45.837 49.913-17.955 4.3599-35.924 3.656-53.618-1.2932-23.737-6.6403-35.835-23.3-39.407-47.038-1.1509-7.6526-1.6828-15.312-1.635-23.043 0.072904-11.436 0.019122-22.875 0.019122-34.312-0.040635-0.00239-0.082466-0.00239-0.1231-0.00239z"/>
<path d="m962.08 2953.7c-10.878-0.20198-23.871-2.3628-36.353-7.5295-4.5727-1.8931-7.2594-4.8296-8.8406-9.4537-3.7576-10.976-4.3814-22.376-5.1165-33.777-0.1733-2.6819 0.87127-4.697 3.7313-5.2838 3.1265-0.6406 5.8766-0.31432 7.1757 3.1899 2.6999 7.2809 6.3403 14.057 11.126 20.169 7.2032 9.2003 15.749 16.592 27.495 19.327 17.897 4.1675 33.586-6.3594 35.288-23.896 0.83302-8.5776-2.1011-16.204-7.3048-22.996-6.6355-8.6637-15.611-14.304-24.995-19.428-4.8965-2.6724-9.8493-5.2527-14.649-8.09-6.2184-3.6763-11.583-8.4258-16.59-13.628-20.622-21.43-16.968-61.675 14.029-76.154 14.69-6.8614 30.074-8.3673 45.929-6.8769 8.2215 0.77326 16.192 2.8576 24.178 4.9204 3.5711 0.92266 5.2133 2.4572 6.0845 6.1144 2.3592 9.915 2.8122 19.977 3.295 30.064 0.1243 2.5983-0.43384 4.8284-3.3249 5.5718-3.1014 0.79717-5.9005 0.33942-7.5725-2.7106-1.0183-1.8537-1.6565-3.9105-2.5457-5.8395-3.264-7.0717-7.398-13.541-13.429-18.601-8.6111-7.2259-18.315-9.327-29.073-5.8347-15.302 4.9659-21.531 21.718-13.134 35.502 4.2488 6.9749 10.336 12.116 17.403 16.058 6.7299 3.7552 13.595 7.2653 20.383 10.915 7.992 4.2978 15.404 9.3521 22.035 15.641 23.978 22.745 23.295 69.599-16.856 86.196-11.475 4.7436-23.486 6.571-38.367 6.4311z"/>
<path d="m707.08 32.762c6.9976 3.2317 12.43 6.9104 16.859 12.573 16.683 21.328 29.761 44.555 39.413 69.877 14.198 37.255 14.467 74.747 3.3225 112.67-3.9046 13.283-8.8931 26.161-14.237 38.917-1.813 4.3277-4.4591 9.4596-8.7927 9.2887-4.9133-0.19362-6.9713-5.665-8.2011-10.514-6.8566-27.033-15.53-53.616-19.727-81.303-3.7181-24.516-4.532-49.238-5.2981-73.947-0.73263-23.656-1.0482-47.321-3.3154-70.904-0.17569-1.8334-0.022708-3.7014-0.022708-6.6558z"/>
<path d="m2283.7 1279.4c-4.7997 38.048-10.233 75.917-27.449 110.92-12.593 25.603-31.413 45.984-53.052 64.022-15.177 12.655-31.735 23.254-49.403 32.102-2.125 1.0649-4.3336 2.1011-6.6223 2.6748-5.077 1.2704-6.9283-0.52228-6.3534-5.7487 0.21035-1.9122 0.95493-3.6237 2.0832-5.1153 16.164-21.386 25.513-46.581 38.876-69.534 20.223-34.73 41.854-68.549 65.901-100.75 7.1398-9.56 15.624-18.115 23.507-27.117 1.9612-2.2385 4.4472-3.7994 7.0693-5.1188 4.3241-2.1752 5.6614-1.2477 5.4427 3.6679z"/>
<path d="m1884.4 2855.5c0 22.067-0.004781 44.136 0.008366 66.204 0.001195 1.5931 0.07649 3.1911 0.20198 4.7794 0.741 9.4704 3.3106 12.109 12.623 13.026 3.4397 0.33823 6.8757 0.70036 10.318 1.0183 3.1182 0.28923 3.9846 2.4178 3.8054 5.022-0.17569 2.5421-1.1545 4.7029-4.3205 4.6133-1.3278-0.03705-2.6568-0.086051-3.9846-0.14581-24.443-1.1067-48.888-1.0864-73.332-0.004781-1.5907 0.070514-3.1946 0.18405-4.7782 0.071709-2.7094-0.19481-3.4408-2.2493-3.5843-4.4651-0.14342-2.223 0.33823-4.4663 3.001-4.8679 3.9368-0.59519 7.9239-0.8629 11.885-1.2991 8.2358-0.90593 11.124-3.8149 11.882-12.14 0.24142-2.6437 0.28445-5.3125 0.28445-7.9693 0.004781-32.172-0.010756-64.345-0.04183-96.517-0.00239-2.1238-0.03705-4.2655-0.30596-6.369-0.80314-6.3056-3.0034-8.9386-9.2385-10.367-4.1269-0.94417-8.3732-1.4282-12.591-1.9003-3.313-0.37169-4.6157-2.3305-4.6958-5.3172-0.082466-3.1684 1.5657-4.5356 4.7722-5.1009 17.563-3.0954 34.757-7.5115 51.276-14.431 5.6973-2.3867 7.1327-0.91549 7.1327 5.9758-0.00239 23.394-0.001195 46.789-0.001195 70.184-0.10517-0.001195-0.21035 0-0.31552 0z"/>
<path d="m2007 2781.4c18.352 0 36.703 0.001195 55.055 0 1.5943 0 3.2257-0.23664 4.7722 0.031074 2.6688 0.46372 3.4062 2.2851 2.5003 4.7137-0.36572 0.97883-1.0685 1.8334-1.6314 2.7357-24.667 39.48-46.395 80.649-69.533 121.01-9.7859 17.067-19.315 34.281-29.017 51.394-3.0548 5.3878-4.9647 5.916-10.162 3.2221-5.3698-2.7847-6.2184-5.8993-2.9688-11.563 14.685-25.598 29.402-51.176 44.111-76.761 8.084-14.061 16.191-28.108 24.257-42.177 2.6449-4.6121 5.3208-9.2433 6.957-14.322 2.2361-6.9391 0.50555-9.3879-6.8231-9.5302-8.776-0.16852-17.557-0.045416-26.335-0.045416-10.907 0-21.815 0.089637-32.721-0.023903-8.5597-0.088441-15.795 2.07-19.857 10.442-1.0972 2.26-2.5863 3.9703-5.475 3.8257-3.5759-0.17688-5.432-2.1417-4.4316-5.6041 3.1707-10.982 6.1335-22.016 8.3529-33.226 0.87007-4.3922 3.7349-4.2117 7.098-4.1962 18.617 0.093222 37.235 0.044221 55.852 0.044221 0.001195 0.014342 0.001195 0.022708 0.001195 0.032269v-0.001195z"/>
<path d="m1788.1 2794.9c0.038245 15.357-7.0203 26.917-19.246 35.6-5.8885 4.183-12.475 6.9749-19.396 9.0401-3.1194 0.93102-5.928 1.1246-7.4195-2.2959-1.5979-3.6679 0.84975-5.2419 3.8054-6.5112 5.4224-2.3329 10.283-5.5276 14.227-9.9795 3.2544-3.6727 5.3973-7.8259 5.5599-12.874 0.23066-7.1171-2.6532-12.297-9.2039-15.296-0.96568-0.44101-1.9182-0.99556-2.9377-1.2143-6.2471-1.3362-9.9377-5.2037-10.312-11.482-0.3956-6.6594 2.7787-11.721 8.5836-15.049 8.8322-5.0651 20.484-2.6664 28.126 5.7654 5.5156 6.0869 8.2478 14.169 8.2131 24.296z"/>
<path d="m1479.5 141.15c-3.3237 6.5231-8.5167 8.77-14.541 9.6234-11.563 1.6374-23.137 3.1803-34.7 4.8129-11.213 1.5836-11.828 2.174-14.626 13.266-1.2274 4.8655-3.1456 6.2112-8.0422 4.4651-6.7383-2.4023-13.242-5.4559-19.915-8.0577-3.5257-1.3744-3.9882-3.7946-3.1731-7.0275 1.3756-5.4559 5.8025-7.4303 10.436-8.7688 8.6637-2.5027 17.423-4.679 26.167-6.8996 8.4856-2.1549 17.051-4.0133 25.489-6.3331 11.471-3.1528 21.951-0.57128 32.906 4.9193z"/>
<path d="m1658 226.37c0.066929 5.0208-4.5655 8.2848-9.211 6.3164-1.6553-0.70156-3.2233-1.8262-4.5392-3.068-3.3584-3.1743-5.5276-8.7294-4.2296-10.263 2.1023-2.4847 10.878-2.2696 14.136 0.3466 2.1011 1.6864 3.8173 4.6635 3.8436 6.6678z"/>
<path d="m945.71 908.13c-6.8124-5.2838-13.56-10.14-12.387-20.212 10.454 2.7787 14.489 9.2875 12.387 20.212z"/>
<path d="m1682.9 434.71c-2.8002-4.7005-4.9766-8.4928-6.7705-13.532 4.6181 0.90593 8.7784 1.2908 10.484 5.3758 1.2728 3.0441-1.3266 5.2993-3.7133 8.1557z"/>
<path d="m1520.1 301.09c-7.9669-1.3314-13.757-2.4441-15.535-9.7238-0.36213-1.4808-1.3935-3.0572 0.35855-4.2308 1.6362-1.096 2.9401-0.18166 4.0468 1.096 3.3381 3.8568 6.6761 7.7135 11.129 12.859z"/>
<path d="m1140.5 719.25c0.18525 1.7748-0.67407 2.5552-2.1286 2.9496-1.4055 0.38125-2.7919 0.3693-3.3644-1.1187-1.2358-3.2126-2.3449-6.4813-3.3309-9.7811-0.48643-1.6326 0.88202-2.3055 2.1154-2.8469 1.4617-0.64299 2.6939-0.16852 3.2484 1.2334 1.2669 3.2018 2.3545 6.4741 3.46 9.5636z"/>
</g>
</g>
</svg>
